<svg width="48" height="48" viewBox="0 0 48 48" fill="none" xmlns="http://www.w3.org/2000/svg">
<rect width="48" height="48" rx="24" fill="black" fill-opacity="0.2"/>
<path d="M34 28.9201V31.9201C34.0011 32.1986 33.9441 32.4743 33.8325 32.7294C33.7209 32.9846 33.5573 33.2137 33.3521 33.402C33.1469 33.5902 32.9046 33.7336 32.6408 33.8228C32.3769 33.912 32.0974 33.9452 31.82 33.9201C28.7428 33.5857 25.787 32.5342 23.19 30.8501C20.7738 29.3148 18.7253 27.2663 17.19 24.8501C15.5 22.2413 14.4482 19.2711 14.12 16.1801C14.095 15.9036 14.1279 15.6249 14.2165 15.3617C14.3051 15.0986 14.4476 14.8568 14.6348 14.6517C14.822 14.4466 15.0498 14.2828 15.3038 14.1706C15.5578 14.0584 15.8323 14.0004 16.11 14.0001H19.11C19.5953 13.9953 20.0658 14.1672 20.4338 14.4836C20.8017 14.8001 21.0421 15.2395 21.11 15.7201C21.2366 16.6802 21.4715 17.6228 21.81 18.5301C21.9445 18.888 21.9737 19.277 21.8939 19.651C21.8142 20.0249 21.6289 20.3682 21.36 20.6401L20.09 21.9101C21.5136 24.4136 23.5865 26.4865 26.09 27.9101L27.36 26.6401C27.6319 26.3712 27.9752 26.1859 28.3491 26.1062C28.7231 26.0264 29.1121 26.0556 29.47 26.1901C30.3773 26.5286 31.3199 26.7635 32.28 26.8901C32.7658 26.9586 33.2094 27.2033 33.5265 27.5776C33.8437 27.9519 34.0122 28.4297 34 28.9201Z" stroke="white" stroke-width="2" stroke-linecap="round" stroke-linejoin="round"/>
</svg>
