<svg width="103" height="47" viewBox="0 0 103 47" fill="none" xmlns="http://www.w3.org/2000/svg">
<path d="M0 2H66L84.5 22.5L66 45H0L10.5 22.5L0 2Z" fill="#039DFF"/>
<path d="M68.0141 0H83.7324L103 22.5408L83.7324 47H67L87.7887 22.5408L68.0141 0Z" fill="#00205D"/>
<path d="M20.6665 24L26.3949 12.6648V12.5703H19.7219V10.1818H29.4176V12.604L23.6825 24H20.6665ZM29.8198 24V21.8949L34.7385 17.3406C35.1568 16.9357 35.5077 16.5714 35.7911 16.2475C36.0789 15.9237 36.2971 15.6065 36.4455 15.2962C36.594 14.9813 36.6682 14.6417 36.6682 14.2773C36.6682 13.8725 36.576 13.5239 36.3916 13.2315C36.2071 12.9347 35.9552 12.7075 35.6359 12.5501C35.3165 12.3881 34.9544 12.3072 34.5496 12.3072C34.1268 12.3072 33.7579 12.3926 33.4431 12.5636C33.1282 12.7345 32.8853 12.9796 32.7144 13.299C32.5434 13.6184 32.458 13.9985 32.458 14.4393H29.6849C29.6849 13.5352 29.8896 12.7502 30.2989 12.0845C30.7082 11.4188 31.2817 10.9038 32.0194 10.5394C32.7571 10.1751 33.6072 9.9929 34.5698 9.9929C35.5594 9.9929 36.4208 10.1683 37.154 10.5192C37.8917 10.8655 38.4652 11.3468 38.8745 11.9631C39.2838 12.5793 39.4885 13.2855 39.4885 14.0817C39.4885 14.6035 39.3851 15.1185 39.1781 15.6268C38.9757 16.1351 38.6136 16.6996 38.0918 17.3203C37.5701 17.9366 36.8346 18.6765 35.8855 19.5401L33.8681 21.517V21.6115H39.6707V24H29.8198ZM40.7341 24L46.4625 12.6648V12.5703H39.7895V10.1818H49.4852V12.604L43.7501 24H40.7341ZM49.8874 24V21.8949L54.8061 17.3406C55.2244 16.9357 55.5753 16.5714 55.8586 16.2475C56.1465 15.9237 56.3647 15.6065 56.5131 15.2962C56.6616 14.9813 56.7358 14.6417 56.7358 14.2773C56.7358 13.8725 56.6436 13.5239 56.4591 13.2315C56.2747 12.9347 56.0228 12.7075 55.7035 12.5501C55.3841 12.3881 55.022 12.3072 54.6172 12.3072C54.1943 12.3072 53.8255 12.3926 53.5106 12.5636C53.1958 12.7345 52.9529 12.9796 52.7819 13.299C52.611 13.6184 52.5256 13.9985 52.5256 14.4393H49.7525C49.7525 13.5352 49.9571 12.7502 50.3665 12.0845C50.7758 11.4188 51.3493 10.9038 52.087 10.5394C52.8247 10.1751 53.6748 9.9929 54.6374 9.9929C55.627 9.9929 56.4884 10.1683 57.2216 10.5192C57.9593 10.8655 58.5328 11.3468 58.9421 11.9631C59.3514 12.5793 59.5561 13.2855 59.5561 14.0817C59.5561 14.6035 59.4526 15.1185 59.2457 15.6268C59.0433 16.1351 58.6812 16.6996 58.1594 17.3203C57.6376 17.9366 56.9022 18.6765 55.9531 19.5401L53.9357 21.517V21.6115H59.7383V24H49.8874Z" fill="white"/>
<path d="M15.6776 37.1321C15.0327 37.1321 14.4773 36.9943 14.0114 36.7188C13.5483 36.4403 13.1903 36.0497 12.9375 35.5469C12.6875 35.0412 12.5625 34.4489 12.5625 33.7699C12.5625 33.0994 12.6875 32.5085 12.9375 31.9972C13.1903 31.4858 13.5426 31.0866 13.9943 30.7997C14.4489 30.5128 14.9801 30.3693 15.5881 30.3693C15.9574 30.3693 16.3153 30.4304 16.6619 30.5526C17.0085 30.6747 17.3196 30.8665 17.5952 31.1278C17.8707 31.3892 18.0881 31.7287 18.2472 32.1463C18.4063 32.5611 18.4858 33.0653 18.4858 33.6591V34.1108H13.2827V33.1562H17.2372C17.2372 32.821 17.169 32.5241 17.0327 32.2656C16.8963 32.0043 16.7045 31.7983 16.4574 31.6477C16.2131 31.4972 15.9261 31.4219 15.5966 31.4219C15.2386 31.4219 14.9261 31.5099 14.6591 31.6861C14.3949 31.8594 14.1903 32.0866 14.0455 32.3679C13.9034 32.6463 13.8324 32.9489 13.8324 33.2756V34.0213C13.8324 34.4588 13.9091 34.831 14.0625 35.1378C14.2188 35.4446 14.4361 35.679 14.7145 35.8409C14.9929 36 15.3182 36.0795 15.6903 36.0795C15.9318 36.0795 16.152 36.0455 16.3509 35.9773C16.5497 35.9062 16.7216 35.8011 16.8665 35.6619C17.0114 35.5227 17.1222 35.3509 17.1989 35.1463L18.4048 35.3636C18.3082 35.7187 18.1349 36.0298 17.8849 36.2969C17.6378 36.5611 17.3267 36.767 16.9517 36.9148C16.5795 37.0597 16.1548 37.1321 15.6776 37.1321ZM25.3114 30.4545L22.9379 37H21.5742L19.1964 30.4545H20.5643L22.2219 35.4915H22.2901L23.9435 30.4545H25.3114ZM28.2262 37.1449C27.8114 37.1449 27.4364 37.0682 27.1012 36.9148C26.766 36.7585 26.5004 36.5327 26.3043 36.2372C26.1112 35.9418 26.0146 35.5795 26.0146 35.1506C26.0146 34.7812 26.0856 34.4773 26.2276 34.2386C26.3697 34 26.5614 33.8111 26.8029 33.6719C27.0444 33.5327 27.3143 33.4276 27.6126 33.3565C27.9109 33.2855 28.2148 33.2315 28.5245 33.1946C28.9165 33.1491 29.2347 33.1122 29.479 33.0838C29.7234 33.0526 29.9009 33.0028 30.0117 32.9347C30.1225 32.8665 30.1779 32.7557 30.1779 32.6023V32.5724C30.1779 32.2003 30.0728 31.9119 29.8626 31.7074C29.6552 31.5028 29.3455 31.4006 28.9336 31.4006C28.5046 31.4006 28.1665 31.4957 27.9194 31.6861C27.6751 31.8736 27.506 32.0824 27.4123 32.3125L26.2148 32.0398C26.3569 31.642 26.5643 31.321 26.837 31.0767C27.1126 30.8295 27.4293 30.6506 27.7873 30.5398C28.1452 30.4261 28.5217 30.3693 28.9165 30.3693C29.1779 30.3693 29.4549 30.4006 29.7475 30.4631C30.043 30.5227 30.3185 30.6335 30.5742 30.7955C30.8327 30.9574 31.0444 31.1889 31.2092 31.4901C31.3739 31.7884 31.4563 32.1761 31.4563 32.6534V37H30.212V36.1051H30.1609C30.0785 36.2699 29.9549 36.4318 29.7901 36.5909C29.6254 36.75 29.4137 36.8821 29.1552 36.9872C28.8967 37.0923 28.587 37.1449 28.2262 37.1449ZM28.5032 36.1222C28.8555 36.1222 29.1566 36.0526 29.4066 35.9134C29.6594 35.7741 29.8512 35.5923 29.9819 35.3679C30.1154 35.1406 30.1822 34.8977 30.1822 34.6392V33.7955C30.1367 33.8409 30.0487 33.8835 29.918 33.9233C29.7901 33.9602 29.6438 33.9929 29.479 34.0213C29.3143 34.0469 29.1538 34.071 28.9975 34.0938C28.8413 34.1136 28.7106 34.1307 28.6055 34.1449C28.3583 34.1761 28.1325 34.2287 27.9279 34.3026C27.7262 34.3764 27.5643 34.483 27.4421 34.6222C27.3228 34.7585 27.2631 34.9403 27.2631 35.1676C27.2631 35.483 27.3796 35.7216 27.6126 35.8835C27.8455 36.0426 28.1424 36.1222 28.5032 36.1222ZM34.3253 34.7798L34.3168 33.2244H34.5384L37.1463 30.4545H38.6719L35.6974 33.608H35.4972L34.3253 34.7798ZM33.1534 37V28.2727H34.4276V37H33.1534ZM37.2869 37L34.9432 33.8892L35.821 32.9986L38.8509 37H37.2869ZM43.9794 34.2855V30.4545H45.2578V37H44.005V35.8665H43.9368C43.7862 36.2159 43.5447 36.5071 43.2124 36.7401C42.8828 36.9702 42.4723 37.0852 41.9808 37.0852C41.5604 37.0852 41.1882 36.9929 40.8643 36.8082C40.5433 36.6207 40.2905 36.3438 40.1058 35.9773C39.924 35.6108 39.8331 35.1577 39.8331 34.6179V30.4545H41.1072V34.4645C41.1072 34.9105 41.2308 35.2656 41.478 35.5298C41.7251 35.794 42.0462 35.9261 42.4411 35.9261C42.6797 35.9261 42.9169 35.8665 43.1527 35.7472C43.3913 35.6278 43.5888 35.4474 43.745 35.206C43.9041 34.9645 43.9822 34.6577 43.9794 34.2855ZM48.8746 37.1449C48.4599 37.1449 48.0849 37.0682 47.7496 36.9148C47.4144 36.7585 47.1488 36.5327 46.9528 36.2372C46.7596 35.9418 46.663 35.5795 46.663 35.1506C46.663 34.7812 46.734 34.4773 46.8761 34.2386C47.0181 34 47.2099 33.8111 47.4513 33.6719C47.6928 33.5327 47.9627 33.4276 48.261 33.3565C48.5593 33.2855 48.8633 33.2315 49.1729 33.1946C49.565 33.1491 49.8832 33.1122 50.1275 33.0838C50.3718 33.0526 50.5494 33.0028 50.6602 32.9347C50.771 32.8665 50.8263 32.7557 50.8263 32.6023V32.5724C50.8263 32.2003 50.7212 31.9119 50.511 31.7074C50.3036 31.5028 49.994 31.4006 49.582 31.4006C49.1531 31.4006 48.815 31.4957 48.5678 31.6861C48.3235 31.8736 48.1545 32.0824 48.0607 32.3125L46.8633 32.0398C47.0053 31.642 47.2127 31.321 47.4854 31.0767C47.761 30.8295 48.0778 30.6506 48.4357 30.5398C48.7937 30.4261 49.1701 30.3693 49.565 30.3693C49.8263 30.3693 50.1033 30.4006 50.396 30.4631C50.6914 30.5227 50.967 30.6335 51.2227 30.7955C51.4812 30.9574 51.6928 31.1889 51.8576 31.4901C52.0224 31.7884 52.1048 32.1761 52.1048 32.6534V37H50.8604V36.1051H50.8093C50.7269 36.2699 50.6033 36.4318 50.4386 36.5909C50.2738 36.75 50.0621 36.8821 49.8036 36.9872C49.5451 37.0923 49.2354 37.1449 48.8746 37.1449ZM49.1516 36.1222C49.5039 36.1222 49.805 36.0526 50.055 35.9134C50.3079 35.7741 50.4996 35.5923 50.6303 35.3679C50.7638 35.1406 50.8306 34.8977 50.8306 34.6392V33.7955C50.7852 33.8409 50.6971 33.8835 50.5664 33.9233C50.4386 33.9602 50.2923 33.9929 50.1275 34.0213C49.9627 34.0469 49.8022 34.071 49.646 34.0938C49.4897 34.1136 49.359 34.1307 49.2539 34.1449C49.0067 34.1761 48.7809 34.2287 48.5763 34.3026C48.3746 34.3764 48.2127 34.483 48.0906 34.6222C47.9712 34.7585 47.9116 34.9403 47.9116 35.1676C47.9116 35.483 48.0281 35.7216 48.261 35.8835C48.494 36.0426 48.7908 36.1222 49.1516 36.1222ZM56.8572 30.4545V31.4773H53.282V30.4545H56.8572ZM54.2408 28.8864H55.5149V35.0781C55.5149 35.3253 55.5518 35.5114 55.6257 35.6364C55.6996 35.7585 55.7947 35.8423 55.9112 35.8878C56.0305 35.9304 56.1598 35.9517 56.299 35.9517C56.4013 35.9517 56.4908 35.9446 56.5675 35.9304C56.6442 35.9162 56.7038 35.9048 56.7464 35.8963L56.9766 36.9489C56.9027 36.9773 56.7976 37.0057 56.6612 37.0341C56.5249 37.0653 56.3544 37.0824 56.1499 37.0852C55.8146 37.0909 55.5021 37.0312 55.2124 36.9062C54.9226 36.7812 54.6882 36.5881 54.5092 36.3267C54.3303 36.0653 54.2408 35.7372 54.2408 35.3423V28.8864ZM60.9535 37.1321C60.3398 37.1321 59.8043 36.9915 59.3469 36.7102C58.8896 36.429 58.5344 36.0355 58.2816 35.5298C58.0288 35.0241 57.9023 34.4332 57.9023 33.7571C57.9023 33.0781 58.0288 32.4844 58.2816 31.9759C58.5344 31.4673 58.8896 31.0724 59.3469 30.7912C59.8043 30.5099 60.3398 30.3693 60.9535 30.3693C61.5671 30.3693 62.1026 30.5099 62.56 30.7912C63.0174 31.0724 63.3725 31.4673 63.6254 31.9759C63.8782 32.4844 64.0046 33.0781 64.0046 33.7571C64.0046 34.4332 63.8782 35.0241 63.6254 35.5298C63.3725 36.0355 63.0174 36.429 62.56 36.7102C62.1026 36.9915 61.5671 37.1321 60.9535 37.1321ZM60.9577 36.0625C61.3555 36.0625 61.685 35.9574 61.9464 35.7472C62.2077 35.5369 62.4009 35.2571 62.5259 34.9077C62.6538 34.5582 62.7177 34.1733 62.7177 33.7528C62.7177 33.3352 62.6538 32.9517 62.5259 32.6023C62.4009 32.25 62.2077 31.9673 61.9464 31.7543C61.685 31.5412 61.3555 31.4347 60.9577 31.4347C60.5572 31.4347 60.2248 31.5412 59.9606 31.7543C59.6992 31.9673 59.5046 32.25 59.3768 32.6023C59.2518 32.9517 59.1893 33.3352 59.1893 33.7528C59.1893 34.1733 59.2518 34.5582 59.3768 34.9077C59.5046 35.2571 59.6992 35.5369 59.9606 35.7472C60.2248 35.9574 60.5572 36.0625 60.9577 36.0625ZM65.4268 37V30.4545H66.6584V31.4943H66.7266C66.8459 31.142 67.0561 30.8651 67.3572 30.6634C67.6612 30.4588 68.005 30.3565 68.3885 30.3565C68.468 30.3565 68.5618 30.3594 68.6697 30.3651C68.7805 30.3707 68.8672 30.3778 68.9297 30.3864V31.6051C68.8786 31.5909 68.7876 31.5753 68.657 31.5582C68.5263 31.5384 68.3956 31.5284 68.2649 31.5284C67.9638 31.5284 67.6953 31.5923 67.4595 31.7202C67.2266 31.8452 67.0419 32.0199 66.9055 32.2443C66.7692 32.4659 66.701 32.7187 66.701 33.0028V37H65.4268Z" fill="white"/>
</svg>
